<svg version="1.1" id="Layer_1" xmlns="http://www.w3.org/2000/svg" xmlns:xlink="http://www.w3.org/1999/xlink" x="0px" y="0px"
	 width="100%" viewBox="0 0 955 955" enable-background="new 0 0 955 955" xml:space="preserve">
<path fill="#000000" opacity="0.000000" stroke="none" 
	d="
M650.000000,956.000000 
	C433.333344,956.000000 217.166672,956.000000 1.000000,956.000000 
	C1.000000,637.666687 1.000000,319.333344 1.000000,1.000000 
	C319.333344,1.000000 637.666687,1.000000 956.000000,1.000000 
	C956.000000,319.333344 956.000000,637.666687 956.000000,956.000000 
	C854.166687,956.000000 752.333313,956.000000 650.000000,956.000000 
M828.091003,200.009537 
	C801.096008,200.029861 774.100586,199.959610 747.106079,200.089447 
	C691.513367,200.356827 635.920715,200.691635 580.328735,201.088120 
	C565.765320,201.191986 551.757935,204.108292 537.931519,208.880371 
	C525.723633,213.093811 514.145569,218.337479 503.309387,225.240265 
	C488.018280,234.980942 474.777649,247.093643 464.098450,261.707214 
	C458.056854,269.974609 452.524292,278.749420 447.866730,287.860229 
	C441.309631,300.686737 436.827881,314.438141 434.281372,328.630676 
	C432.809814,336.832275 431.573792,345.097290 437.009460,353.052124 
	C442.048737,360.426910 445.805145,368.684967 450.047302,376.596497 
	C459.525055,394.272308 468.941284,411.981079 478.405396,429.664215 
	C488.797546,449.081299 499.489105,468.345764 509.450623,487.980896 
	C512.337524,493.671143 516.251343,497.103088 521.817993,499.306183 
	C523.598389,500.010803 525.370239,500.737701 527.137329,501.475250 
	C544.795715,508.844818 563.145996,513.735779 582.291748,513.827698 
	C643.615906,514.122131 704.942566,513.890259 766.268066,513.964539 
	C778.606506,513.979431 790.080566,517.588989 800.466431,524.138123 
	C816.621399,534.325073 828.468323,548.176147 834.810059,566.394104 
	C839.073059,578.640442 840.463196,591.237915 837.970886,603.981750 
	C834.951721,619.418945 827.946228,632.873230 816.790161,644.150574 
	C801.953491,659.148621 784.114258,667.799927 763.035767,667.955566 
	C712.878601,668.325928 662.716797,668.055725 612.556824,668.075623 
	C610.383850,668.076477 608.210938,668.388123 605.276611,668.613464 
	C612.192017,681.222656 618.643555,692.758179 624.878540,704.409485 
	C633.688538,720.872742 642.351685,737.414673 651.046021,753.939575 
	C652.806702,757.285950 654.856079,759.099182 659.258179,759.074890 
	C701.418640,758.841980 743.580872,758.966858 785.742432,758.881836 
	C789.650696,758.873962 793.679260,758.600403 797.442810,757.635010 
	C810.310547,754.334045 823.053711,750.862549 835.354248,745.436401 
	C851.080627,738.498901 865.372681,729.498474 878.036804,718.225586 
	C897.673950,700.745544 912.784424,679.740234 922.898926,655.318176 
	C931.116455,635.476318 935.376038,614.706421 935.717651,593.349548 
	C935.897583,582.094177 934.138916,570.782593 932.900330,559.535522 
	C930.915588,541.512207 924.447021,524.796936 916.203003,508.910248 
	C904.884644,487.099365 889.281738,468.657379 869.893250,453.385712 
	C857.642578,443.736328 844.240845,435.839478 829.908691,430.328857 
	C808.170593,421.970673 785.485718,417.805908 761.853577,417.881317 
	C700.763123,418.076324 639.667419,417.612793 578.579224,416.928406 
	C558.084961,416.698822 542.792297,405.633698 531.294434,389.579163 
	C520.128662,373.988342 518.044678,356.295685 523.057922,338.018890 
	C526.858032,324.165131 535.312622,313.168671 546.800964,304.643402 
	C556.907043,297.143921 568.281494,292.949371 580.985413,292.948151 
	C701.138062,292.936401 821.290771,292.942413 941.443420,292.986359 
	C945.129639,292.987701 948.687073,292.577209 949.613464,288.494415 
	C950.568115,284.286774 950.468567,280.171600 946.216797,277.041382 
	C939.820923,272.332611 933.773132,267.151428 927.568298,262.182404 
	C919.585632,255.789459 911.575317,249.430801 903.610657,243.015488 
	C892.802490,234.309860 881.751526,225.878952 871.308899,216.753296 
	C859.361877,206.313034 845.927002,200.318253 829.515686,200.031952 
	C829.350159,200.076340 829.184692,200.120712 828.091003,200.009537 
M238.541779,506.962402 
	C247.195496,490.594116 255.776505,474.186920 264.519501,457.866486 
	C278.506073,431.758057 292.615997,405.715759 306.639709,379.627197 
	C311.223877,371.099213 315.702057,362.514282 320.525604,353.394043 
	C328.608582,368.253510 336.346802,382.299896 343.909546,396.440155 
	C349.735809,407.333740 355.204773,418.419189 361.075714,429.287994 
	C371.313599,448.241211 381.752869,467.085602 392.078705,485.991455 
	C396.454041,494.002380 400.861053,501.998962 405.060150,510.102325 
	C408.870148,517.454895 412.431915,524.936523 416.074249,532.375427 
	C417.820740,535.942383 415.404846,537.953430 412.779724,538.904297 
	C410.118073,539.868408 407.053040,540.012390 404.164429,540.013977 
	C310.506134,540.065613 216.847794,540.056519 123.189468,540.056519 
	C120.882835,540.056519 118.576202,540.056580 116.878380,540.056580 
	C114.224037,544.699707 111.725616,548.843506 109.442635,553.102844 
	C99.603851,571.458679 89.827339,589.847839 80.029915,608.225830 
	C69.176193,628.585205 58.331238,648.949280 47.469311,669.304260 
	C40.300091,682.739197 33.133163,696.175476 25.916019,709.584717 
	C21.672218,717.469604 17.157753,725.213562 13.084681,733.184265 
	C9.061649,741.057007 3.463723,748.635193 6.999028,759.304199 
	C11.552693,758.830017 16.790642,759.370972 21.122816,757.642151 
	C38.291302,750.791077 55.175617,743.228088 72.166824,735.932556 
	C83.847656,730.917114 95.589767,726.039246 107.196556,720.858032 
	C118.476501,715.822693 128.680786,709.291992 135.156509,698.275452 
	C139.819962,690.341858 144.556778,682.441040 148.907242,674.335754 
	C163.989426,646.236511 178.914429,618.052917 193.905075,589.904541 
	C198.892639,580.539246 203.897888,571.183411 208.956879,561.707397 
	C216.529022,567.778748 223.696304,573.452332 230.783295,579.224487 
	C242.281784,588.589722 253.891098,597.828735 265.151825,607.473389 
	C277.513367,618.060974 291.025421,624.192261 307.865234,624.139221 
	C361.776672,623.969360 415.690338,624.670654 469.603729,624.905884 
	C501.100067,625.043335 532.597534,624.946350 564.094421,624.897400 
	C565.745972,624.894836 567.396729,624.354370 569.346008,624.011963 
	C567.942261,620.645020 567.061340,617.857666 565.686157,615.340332 
	C554.483765,594.833984 543.137878,574.405945 531.937683,553.898376 
	C522.245300,536.151489 512.634277,518.359741 503.082825,500.536652 
	C492.856384,481.454163 482.779663,462.291473 472.567230,443.201447 
	C462.894958,425.121063 453.128906,407.090881 443.408875,389.036072 
	C434.579346,372.635345 425.745758,356.236786 416.932831,339.827118 
	C404.075623,315.887085 391.259674,291.924866 378.379181,267.997375 
	C369.926117,252.294510 361.465057,236.594894 352.837830,220.987656 
	C350.727722,217.170380 348.083435,213.622208 345.453064,210.124542 
	C340.914307,204.089172 332.247803,202.001129 325.444153,204.921341 
	C320.406433,207.083588 315.222015,208.904755 310.189819,211.078934 
	C298.369598,216.185944 287.634735,222.802124 281.090057,234.405212 
	C273.196350,248.400024 265.518280,262.517731 257.855865,276.641418 
	C248.074722,294.670349 238.374939,312.743652 228.691040,330.825104 
	C218.769409,349.350372 208.915787,367.912109 199.020554,386.451569 
	C188.057755,406.991150 177.098724,427.532776 166.104950,448.055817 
	C158.994019,461.330475 151.823288,474.573090 144.680099,487.830475 
	C140.419327,495.738281 136.141602,503.637054 131.906723,511.558685 
	C129.166031,516.685303 126.489021,521.845947 123.587845,527.363403 
	C125.172836,527.656860 125.958534,527.929138 126.744431,527.929688 
	C159.241501,527.953186 191.738678,527.977234 224.235336,527.860046 
	C225.492355,527.855530 227.265305,526.770142 227.911957,525.668396 
	C231.419830,519.692078 234.648849,513.552002 238.541779,506.962402 
M612.960754,705.667419 
	C609.767212,700.103088 606.426025,694.617493 603.408264,688.959473 
	C594.792786,672.805847 586.322998,656.574524 577.759705,640.392944 
	C576.233032,637.507935 574.298767,635.830078 570.440979,635.939392 
	C558.289917,636.283691 546.122925,636.065369 533.962097,636.065247 
	C514.150391,636.065063 494.338715,636.065247 474.085663,636.065247 
	C474.241699,637.532104 474.016296,638.941650 474.555786,639.936401 
	C479.668579,649.363159 485.006073,658.668274 490.096832,668.106628 
	C500.163452,686.770264 510.124359,705.490967 520.109192,724.198669 
	C525.544373,734.382141 530.939453,744.587036 536.351562,754.782776 
	C537.942932,757.780762 540.122742,759.066589 543.816589,759.044617 
	C574.300781,758.863342 604.786499,758.940063 635.271790,758.938721 
	C636.746094,758.938660 638.220337,758.938660 641.036926,758.938660 
	C631.399231,740.896362 622.193359,723.662415 612.960754,705.667419 
z"/>
<path fill="#FEFEFE" opacity="1.000000" stroke="none" 
	d="
M829.978333,200.255829 
	C845.927002,200.318253 859.361877,206.313034 871.308899,216.753296 
	C881.751526,225.878952 892.802490,234.309860 903.610657,243.015488 
	C911.575317,249.430801 919.585632,255.789459 927.568298,262.182404 
	C933.773132,267.151428 939.820923,272.332611 946.216797,277.041382 
	C950.468567,280.171600 950.568115,284.286774 949.613464,288.494415 
	C948.687073,292.577209 945.129639,292.987701 941.443420,292.986359 
	C821.290771,292.942413 701.138062,292.936401 580.985413,292.948151 
	C568.281494,292.949371 556.907043,297.143921 546.800964,304.643402 
	C535.312622,313.168671 526.858032,324.165131 523.057922,338.018890 
	C518.044678,356.295685 520.128662,373.988342 531.294434,389.579163 
	C542.792297,405.633698 558.084961,416.698822 578.579224,416.928406 
	C639.667419,417.612793 700.763123,418.076324 761.853577,417.881317 
	C785.485718,417.805908 808.170593,421.970673 829.908691,430.328857 
	C844.240845,435.839478 857.642578,443.736328 869.893250,453.385712 
	C889.281738,468.657379 904.884644,487.099365 916.203003,508.910248 
	C924.447021,524.796936 930.915588,541.512207 932.900330,559.535522 
	C934.138916,570.782593 935.897583,582.094177 935.717651,593.349548 
	C935.376038,614.706421 931.116455,635.476318 922.898926,655.318176 
	C912.784424,679.740234 897.673950,700.745544 878.036804,718.225586 
	C865.372681,729.498474 851.080627,738.498901 835.354248,745.436401 
	C823.053711,750.862549 810.310547,754.334045 797.442810,757.635010 
	C793.679260,758.600403 789.650696,758.873962 785.742432,758.881836 
	C743.580872,758.966858 701.418640,758.841980 659.258179,759.074890 
	C654.856079,759.099182 652.806702,757.285950 651.046021,753.939575 
	C642.351685,737.414673 633.688538,720.872742 624.878540,704.409485 
	C618.643555,692.758179 612.192017,681.222656 605.276611,668.613464 
	C608.210938,668.388123 610.383850,668.076477 612.556824,668.075623 
	C662.716797,668.055725 712.878601,668.325928 763.035767,667.955566 
	C784.114258,667.799927 801.953491,659.148621 816.790161,644.150574 
	C827.946228,632.873230 834.951721,619.418945 837.970886,603.981750 
	C840.463196,591.237915 839.073059,578.640442 834.810059,566.394104 
	C828.468323,548.176147 816.621399,534.325073 800.466431,524.138123 
	C790.080566,517.588989 778.606506,513.979431 766.268066,513.964539 
	C704.942566,513.890259 643.615906,514.122131 582.291748,513.827698 
	C563.145996,513.735779 544.795715,508.844818 527.137329,501.475250 
	C525.370239,500.737701 523.598389,500.010803 521.817993,499.306183 
	C516.251343,497.103088 512.337524,493.671143 509.450623,487.980896 
	C499.489105,468.345764 488.797546,449.081299 478.405396,429.664215 
	C468.941284,411.981079 459.525055,394.272308 450.047302,376.596497 
	C445.805145,368.684967 442.048737,360.426910 437.009460,353.052124 
	C431.573792,345.097290 432.809814,336.832275 434.281372,328.630676 
	C436.827881,314.438141 441.309631,300.686737 447.866730,287.860229 
	C452.524292,278.749420 458.056854,269.974609 464.098450,261.707214 
	C474.777649,247.093643 488.018280,234.980942 503.309387,225.240265 
	C514.145569,218.337479 525.723633,213.093811 537.931519,208.880371 
	C551.757935,204.108292 565.765320,201.191986 580.328735,201.088120 
	C635.920715,200.691635 691.513367,200.356827 747.106079,200.089447 
	C774.100586,199.959610 801.096008,200.029861 828.637390,200.230896 
	C829.183777,200.452255 829.616821,200.568344 829.616821,200.568344 
	C829.616821,200.568344 829.978333,200.255829 829.978333,200.255829 
z"/>
<path fill="#FEFEFE" opacity="1.000000" stroke="none" 
	d="
M238.257843,507.215393 
	C234.648849,513.552002 231.419830,519.692078 227.911957,525.668396 
	C227.265305,526.770142 225.492355,527.855530 224.235336,527.860046 
	C191.738678,527.977234 159.241501,527.953186 126.744431,527.929688 
	C125.958534,527.929138 125.172836,527.656860 123.587845,527.363403 
	C126.489021,521.845947 129.166031,516.685303 131.906723,511.558685 
	C136.141602,503.637054 140.419327,495.738281 144.680099,487.830475 
	C151.823288,474.573090 158.994019,461.330475 166.104950,448.055817 
	C177.098724,427.532776 188.057755,406.991150 199.020554,386.451569 
	C208.915787,367.912109 218.769409,349.350372 228.691040,330.825104 
	C238.374939,312.743652 248.074722,294.670349 257.855865,276.641418 
	C265.518280,262.517731 273.196350,248.400024 281.090057,234.405212 
	C287.634735,222.802124 298.369598,216.185944 310.189819,211.078934 
	C315.222015,208.904755 320.406433,207.083588 325.444153,204.921341 
	C332.247803,202.001129 340.914307,204.089172 345.453064,210.124542 
	C348.083435,213.622208 350.727722,217.170380 352.837830,220.987656 
	C361.465057,236.594894 369.926117,252.294510 378.379181,267.997375 
	C391.259674,291.924866 404.075623,315.887085 416.932831,339.827118 
	C425.745758,356.236786 434.579346,372.635345 443.408875,389.036072 
	C453.128906,407.090881 462.894958,425.121063 472.567230,443.201447 
	C482.779663,462.291473 492.856384,481.454163 503.082825,500.536652 
	C512.634277,518.359741 522.245300,536.151489 531.937683,553.898376 
	C543.137878,574.405945 554.483765,594.833984 565.686157,615.340332 
	C567.061340,617.857666 567.942261,620.645020 569.346008,624.011963 
	C567.396729,624.354370 565.745972,624.894836 564.094421,624.897400 
	C532.597534,624.946350 501.100067,625.043335 469.603729,624.905884 
	C415.690338,624.670654 361.776672,623.969360 307.865234,624.139221 
	C291.025421,624.192261 277.513367,618.060974 265.151825,607.473389 
	C253.891098,597.828735 242.281784,588.589722 230.783295,579.224487 
	C223.696304,573.452332 216.529022,567.778748 208.956879,561.707397 
	C203.897888,571.183411 198.892639,580.539246 193.905075,589.904541 
	C178.914429,618.052917 163.989426,646.236511 148.907242,674.335754 
	C144.556778,682.441040 139.819962,690.341858 135.156509,698.275452 
	C128.680786,709.291992 118.476501,715.822693 107.196556,720.858032 
	C95.589767,726.039246 83.847656,730.917114 72.166824,735.932556 
	C55.175617,743.228088 38.291302,750.791077 21.122816,757.642151 
	C16.790642,759.370972 11.552693,758.830017 6.999028,759.304199 
	C3.463723,748.635193 9.061649,741.057007 13.084681,733.184265 
	C17.157753,725.213562 21.672218,717.469604 25.916019,709.584717 
	C33.133163,696.175476 40.300091,682.739197 47.469311,669.304260 
	C58.331238,648.949280 69.176193,628.585205 80.029915,608.225830 
	C89.827339,589.847839 99.603851,571.458679 109.442635,553.102844 
	C111.725616,548.843506 114.224037,544.699707 116.878380,540.056580 
	C118.576202,540.056580 120.882835,540.056519 123.189468,540.056519 
	C216.847794,540.056519 310.506134,540.065613 404.164429,540.013977 
	C407.053040,540.012390 410.118073,539.868408 412.779724,538.904297 
	C415.404846,537.953430 417.820740,535.942383 416.074249,532.375427 
	C412.431915,524.936523 408.870148,517.454895 405.060150,510.102325 
	C400.861053,501.998962 396.454041,494.002380 392.078705,485.991455 
	C381.752869,467.085602 371.313599,448.241211 361.075714,429.287994 
	C355.204773,418.419189 349.735809,407.333740 343.909546,396.440155 
	C336.346802,382.299896 328.608582,368.253510 320.525604,353.394043 
	C315.702057,362.514282 311.223877,371.099213 306.639709,379.627197 
	C292.615997,405.715759 278.506073,431.758057 264.519501,457.866486 
	C255.776505,474.186920 247.195496,490.594116 238.257843,507.215393 
z"/>
<path fill="#FDFDFD" opacity="1.000000" stroke="none" 
	d="
M612.974121,706.047974 
	C622.193359,723.662415 631.399231,740.896362 641.036926,758.938660 
	C638.220337,758.938660 636.746094,758.938660 635.271790,758.938721 
	C604.786499,758.940063 574.300781,758.863342 543.816589,759.044617 
	C540.122742,759.066589 537.942932,757.780762 536.351562,754.782776 
	C530.939453,744.587036 525.544373,734.382141 520.109192,724.198669 
	C510.124359,705.490967 500.163452,686.770264 490.096832,668.106628 
	C485.006073,658.668274 479.668579,649.363159 474.555786,639.936401 
	C474.016296,638.941650 474.241699,637.532104 474.085663,636.065247 
	C494.338715,636.065247 514.150391,636.065063 533.962097,636.065247 
	C546.122925,636.065369 558.289917,636.283691 570.440979,635.939392 
	C574.298767,635.830078 576.233032,637.507935 577.759705,640.392944 
	C586.322998,656.574524 594.792786,672.805847 603.408264,688.959473 
	C606.426025,694.617493 609.767212,700.103088 612.974121,706.047974 
z"/>
<path fill="#FFFFFF" opacity="1.000000" stroke="none" 
	d="
M829.747009,200.143890 
	C829.978333,200.255829 829.616821,200.568344 829.616821,200.568344 
	C829.616821,200.568344 829.183777,200.452255 829.101562,200.308670 
	C829.184692,200.120712 829.350159,200.076340 829.747009,200.143890 
z"/>
</svg>