<svg xmlns="http://www.w3.org/2000/svg" xml:space="preserve" viewBox="0 0 955 955"><path fill="#fefefe" d="M830 200q24 0 41 17l33 26 24 19 18 15q6 5 4 11t-9 5H581q-19 0-34 12-18 12-24 33-8 27 8 52 17 26 48 27l183 1q35 0 68 12 21 9 40 23a170 170 0 0 1 63 107l3 33a168 168 0 0 1-101 152 241 241 0 0 1-49 14H659q-5 0-8-5l-26-50-20-35 8-1h150q32-1 54-24 17-17 21-40 3-19-3-38-10-27-35-42-15-9-34-10H582a145 145 0 0 1-60-15q-9-2-13-11l-31-58-28-53q-6-13-13-24-6-12-3-24a146 146 0 0 1 30-67 144 144 0 0 1 74-53q21-8 42-8l249-1zM238 507l-10 19-4 2h-97l-3-1 8-15 13-24 21-40 33-62 30-55 52-97q11-16 29-23l15-6q12-4 20 5l8 11 25 47 39 72 26 49 30 54 30 58 29 53 34 61 3 9-5 1h-94l-162-1q-24 0-43-17l-34-28-22-17-15 28-45 84-14 24q-10 16-28 23l-35 15-51 22-14 1c-4-10 2-18 6-26l13-23 21-41 33-61 29-55 8-13h287l9-1q5-1 3-7l-11-22-13-24-31-57-17-33-23-43-14 27-42 78z"/><path fill="#fdfdfd" d="m613 706 28 53h-97q-5 0-8-4l-16-31-30-56-15-28-1-4h96q6 1 8 4l25 49z"/><path fill="#fff" d="M830 200z"/></svg>